# xmcd
#
# Track frame offsets: 
#        150
#        21205
#        39665
#        87849
#
# Disc length: 1635 seconds
#
# Revision: 0
# Processed by: cddbd v1.4PL0 Copyright (c) Steve Scherf et al.
# Submitted via: ExactAudioCopy v0.90b4
#
DISCID=27066104
DTITLE=Van Morrison - Back Again, 'Cos I Don't Fade Away, disc 2
DYEAR=2003
DGENRE=Celtic
TTITLE0=All Work And No Play
TTITLE1=Have I Told You Lately
TTITLE2=It's All In The Game > You Know What They're Writing About > R
TTITLE2=ainbow 65 > No Prima Donna
TTITLE3=Did Ye Get Healed ? > Yeh Yeh
EXTD=
EXTT0=
EXTT1=
EXTT2=
EXTT3=
PLAYORDER=
